<svg width="198" height="49" viewBox="0 0 198 49" fill="none" xmlns="http://www.w3.org/2000/svg">
<path d="M69.84 36C68.6733 36 67.8917 35.9417 67.495 35.825C67.0983 35.685 66.9 35.4633 66.9 35.16V13.39C66.9 12.8767 67.5767 12.375 68.93 11.885C70.2833 11.3717 71.8 11.115 73.48 11.115C74.9733 11.115 75.9533 11.43 76.42 12.06C76.5833 12.2933 76.665 12.5267 76.665 12.76V28.265C79.5117 28.0783 81.6583 27.985 83.105 27.985C83.595 27.985 83.84 28.7667 83.84 30.33C83.84 31.87 83.735 33.2 83.525 34.32C83.315 35.44 83.035 36 82.685 36H69.84ZM96.5431 36.315C94.7931 36.315 93.2881 36.1633 92.0281 35.86C90.7681 35.5567 89.6248 35.02 88.5981 34.25C86.4748 32.71 85.4131 29.84 85.4131 25.64C85.4131 21.9067 86.4981 19.235 88.6681 17.625C90.6981 16.1317 93.3231 15.385 96.5431 15.385C97.9198 15.385 99.0981 15.455 100.078 15.595C101.058 15.7117 102.05 15.98 103.053 16.4C104.08 16.82 104.896 17.3917 105.503 18.115C106.133 18.8383 106.646 19.8417 107.043 21.125C107.44 22.385 107.638 23.89 107.638 25.64C107.638 29.1867 106.635 31.8583 104.628 33.655C102.621 35.4283 99.9264 36.315 96.5431 36.315ZM95.3181 29.49C95.4814 30.33 95.6448 30.8317 95.8081 30.995C95.9948 31.1583 96.2281 31.24 96.5081 31.24C96.8114 31.24 97.0448 31.1583 97.2081 30.995C97.3948 30.8317 97.5581 30.33 97.6981 29.49C97.8614 28.65 97.9431 27.6 97.9431 26.34C97.9431 25.0567 97.9081 24.0767 97.8381 23.4C97.7914 22.7 97.7214 22.1633 97.6281 21.79C97.5581 21.4167 97.4531 21.125 97.3131 20.915C97.1031 20.6117 96.8464 20.46 96.5431 20.46C96.2631 20.46 96.0298 20.5533 95.8431 20.74C95.6564 20.9033 95.4814 21.4167 95.3181 22.28C95.1548 23.12 95.0731 24.3217 95.0731 25.885C95.0731 27.4483 95.1548 28.65 95.3181 29.49ZM130.828 24.38V35.16C130.828 35.4167 130.163 35.6267 128.833 35.79C127.503 35.93 126.126 36 124.703 36C123.303 36 122.393 35.9417 121.973 35.825C121.576 35.685 121.378 35.4633 121.378 35.16V24.03C121.378 22.98 121.331 22.2917 121.238 21.965C121.168 21.6383 121.098 21.3467 121.028 21.09C120.865 20.6467 120.573 20.425 120.153 20.425C119.5 20.425 119.173 20.74 119.173 21.37V35.16C119.173 35.4167 118.508 35.6267 117.178 35.79C115.871 35.93 114.506 36 113.083 36C111.683 36 110.773 35.9417 110.353 35.825C109.933 35.685 109.723 35.4633 109.723 35.16V17.905C109.723 17.415 110.388 16.925 111.718 16.435C113.071 15.945 114.495 15.7 115.988 15.7C117.481 15.7 118.321 16.1317 118.508 16.995L118.823 18.535H119.068C119.745 17.1817 120.911 16.2367 122.568 15.7C123.245 15.49 123.991 15.385 124.808 15.385C127.165 15.385 128.751 16.0967 129.568 17.52C130.408 18.92 130.828 21.2067 130.828 24.38ZM137.788 35.405C137.228 35.1483 136.621 34.7633 135.968 34.25C135.338 33.7367 134.813 33.13 134.393 32.43C133.413 30.75 132.923 28.5567 132.923 25.85C132.923 24.17 133.191 22.6767 133.728 21.37C134.265 20.04 134.918 19.0133 135.688 18.29C136.458 17.5667 137.345 16.9717 138.348 16.505C139.958 15.7583 141.568 15.385 143.178 15.385C145.885 15.385 147.763 15.595 148.813 16.015C149.886 16.435 150.423 17.1467 150.423 18.15C150.423 19.1533 150.236 20.2267 149.863 21.37C149.513 22.49 149.046 23.05 148.463 23.05C148.276 23.05 147.705 22.8517 146.748 22.455C145.815 22.0583 144.998 21.86 144.298 21.86C143.621 21.86 143.096 22.14 142.723 22.7C142.373 23.2367 142.198 24.2983 142.198 25.885C142.198 27.4483 142.361 28.5217 142.688 29.105C143.015 29.665 143.516 29.945 144.193 29.945C144.893 29.945 145.756 29.7117 146.783 29.245C147.81 28.7783 148.381 28.545 148.498 28.545C148.941 28.545 149.361 29.07 149.758 30.12C150.178 31.17 150.388 32.1033 150.388 32.92C150.388 34.18 149.735 35.0667 148.428 35.58C147.121 36.07 145.348 36.315 143.108 36.315C140.891 36.315 139.118 36.0117 137.788 35.405ZM163.891 35.16V25.43C163.891 23.68 163.821 22.4083 163.681 21.615C163.541 20.8217 163.203 20.425 162.666 20.425C162.199 20.425 161.966 20.74 161.966 21.37V35.16C161.966 35.4167 161.289 35.6267 159.936 35.79C158.583 35.93 157.194 36 155.771 36C154.348 36 153.449 35.9417 153.076 35.825C152.703 35.685 152.516 35.4633 152.516 35.16V10.905C152.516 10.415 153.193 9.925 154.546 9.435C155.899 8.945 157.323 8.7 158.816 8.7C160.379 8.7 161.371 8.99167 161.791 9.575C161.931 9.76167 162.001 9.96 162.001 10.17V15.315L161.616 17.73H161.861C162.188 17.24 162.701 16.8083 163.401 16.435C164.708 15.735 166.131 15.385 167.671 15.385C169.888 15.385 171.381 16.0967 172.151 17.52C172.944 18.92 173.341 21.2067 173.341 24.38V35.16C173.341 35.4167 172.653 35.6267 171.276 35.79C169.923 35.93 168.534 36 167.111 36C165.711 36 164.824 35.9417 164.451 35.825C164.078 35.685 163.891 35.4633 163.891 35.16ZM184.997 28.09C184.997 29.6067 185.721 30.365 187.167 30.365C188.007 30.365 189.104 30.085 190.457 29.525C191.811 28.9417 192.522 28.65 192.592 28.65C193.036 28.65 193.619 29.315 194.342 30.645C195.066 31.975 195.427 32.955 195.427 33.585C195.427 34.495 194.494 35.1833 192.627 35.65C190.761 36.1167 188.929 36.35 187.132 36.35C185.359 36.35 183.866 36.21 182.652 35.93C181.462 35.65 180.482 35.3 179.712 34.88C178.966 34.4367 178.301 33.9 177.717 33.27C177.157 32.64 176.737 32.045 176.457 31.485C176.177 30.9017 175.956 30.26 175.792 29.56C175.559 28.5333 175.442 27.4717 175.442 26.375C175.442 22.1283 176.551 19.2 178.767 17.59C179.864 16.7733 181.089 16.2017 182.442 15.875C183.796 15.5483 185.394 15.385 187.237 15.385C193.141 15.385 196.092 17.4383 196.092 21.545C196.092 25.9083 192.779 28.09 186.152 28.09H184.997ZM184.927 22.98V25.29C185.604 25.29 186.152 25.0217 186.572 24.485C187.016 23.9483 187.237 23.295 187.237 22.525C187.237 21.125 186.876 20.425 186.152 20.425C185.336 20.425 184.927 21.2767 184.927 22.98Z" fill="white"/>
<path d="M24 18.7647L28.1911 19.5211C30.0102 19.8494 31.3333 21.4328 31.3333 23.2812V23.2812C31.3333 25.0346 32.5268 26.5629 34.2278 26.988L36.6296 27.5882" stroke="#FF468D" stroke-width="3" stroke-linecap="round"/>
<path d="M5.25905 2.58831L4.91274 2.71332C3.83788 3.1013 2.98136 3.93213 2.56083 4.99468C2.1997 5.90717 2.18804 6.92083 2.52807 7.84138L2.81481 8.61765L4.44444 11.7059L5.66667 14.3529L5.81632 14.6771C6.52294 16.2074 6.88889 17.873 6.88889 19.5586C6.88889 20.2047 6.94266 20.8497 7.04964 21.4868L7.27183 22.8102C7.55911 24.5212 8.00627 26.2015 8.60744 27.829L8.74533 28.2023C9.67682 30.724 10.9226 33.1182 12.4533 35.3282L12.5926 35.5294L13.0967 36.2312C14.6516 38.3962 16.5464 40.2955 18.7075 41.8557C19.7896 42.6369 20.9332 43.3292 22.127 43.9259L22.9683 44.3464C24.7364 45.23 26.6024 45.9022 28.5278 46.349L28.9943 46.4572C30.5486 46.8179 32.1389 47 33.7345 47C35.3872 47 37.0341 46.8046 38.6409 46.418L39.8889 46.1176L44.3704 45.6765H46.8148H48.8519H51.7037H52.0425C52.8897 45.6765 53.7235 45.4652 54.4685 45.0618L54.6011 44.99C55.3695 44.574 56.0028 43.9468 56.4263 43.1825C56.8026 42.5034 57 41.735 57 40.9586C57 40.2909 56.855 39.6272 56.5752 39.0211L55.7778 37.2941L54.6461 35.3333C54.0458 34.2933 53.6034 33.17 53.3333 32L52.1111 27.5882L50.8889 23.1765L48.8519 18.3235C48.0404 16.566 47.008 14.9192 45.7798 13.4229L44.3704 11.7059L42.7841 10.179C41.4019 8.84851 39.8693 7.68363 38.2174 6.70792L38.0783 6.62572C36.8436 5.89645 35.5434 5.28438 34.1946 4.79752C32.2954 4.11197 30.3141 3.6798 28.3018 3.51219L26.037 3.32353H22.2496C20.974 3.32353 19.7002 3.42147 18.4396 3.61649L16.3841 3.93447C15.2214 4.11434 14.0308 4.11324 12.8681 3.93337C12.1458 3.82164 11.4317 3.63977 10.7443 3.39165L8.51872 2.58831C7.46543 2.20811 6.31235 2.20811 5.25905 2.58831Z" stroke="#FF468D" stroke-width="3"/>
<path d="M42.3333 27.1471L39.4815 22.2941L38.1123 20.3878C37.1269 19.0159 35.9916 17.7582 34.7273 16.6381L34.1065 16.088C32.8084 14.9379 31.3442 13.9902 29.7633 13.2769V13.2769C28.1044 12.5284 26.3375 12.0472 24.5281 11.8513L23.1852 11.7059H19.1111L18.699 11.7617C17.125 11.9747 16.0199 13.4208 16.2276 14.9954V14.9954C16.2487 15.1551 16.2831 15.3126 16.3304 15.4665L17.0741 17.8824L19.1111 22.2941L20.4682 24.4985C21.1914 25.6732 22.0268 26.775 22.9627 27.7885V27.7885C23.6534 28.5364 24.3966 29.2339 25.1869 29.8757L25.3895 30.0403C26.6318 31.0492 27.9877 31.9094 29.4297 32.6034V32.6034C30.4256 33.0827 31.4585 33.4808 32.5185 33.7939L33.0483 33.9503C34.6179 34.4139 36.2259 34.7357 37.853 34.9119L39.4815 35.0882H42.3333H45.1852H46.4074" stroke="#FF468D" stroke-width="3" stroke-linecap="round"/>
</svg>
